<svg xmlns="http://www.w3.org/2000/svg" version="1.1" xmlns:xlink="http://www.w3.org/1999/xlink" xmlns:svgjs="http://svgjs.dev/svgjs" width="1500" height="1500" viewBox="0 0 1500 1500"><rect width="1500" height="1500" fill="#ffffff"></rect><g transform="matrix(0.6666666666666666,0,0,0.6666666666666666,249.39393939393932,664.9538746600642)"><svg viewBox="0 0 396 67" data-background-color="#001f3f" preserveAspectRatio="xMidYMid meet" height="253" width="1500" xmlns="http://www.w3.org/2000/svg" xmlns:xlink="http://www.w3.org/1999/xlink"><g id="tight-bounds" transform="matrix(1,0,0,1,0.24000000000003752,0.2831446508440365)"><svg viewBox="0 0 395.5199999999999 66.43371069831191" height="66.43371069831191" width="395.5199999999999"><g><svg viewBox="0 0 455.9701619360717 76.58725178277565" height="66.43371069831191" width="395.5199999999999"><g transform="matrix(1,0,0,1,60.4501619360717,0)"><svg viewBox="0 0 395.52 76.58725178277565" height="76.58725178277565" width="395.52"><g id="textblocktransform"><svg viewBox="0 0 395.52 76.58725178277565" height="76.58725178277565" width="395.52" id="textblock"><g><svg viewBox="0 0 395.52 76.58725178277565" height="76.58725178277565" width="395.52"><g transform="matrix(1,0,0,1,0,0)"><svg width="395.52" viewBox="2.6 -34.85 182.28 35.300000000000004" height="76.58725178277565" data-palette-color="#0074d9"><path d="M24.6 0.3L24.6 0.3Q23.65-1.25 22.13-3.53 20.6-5.8 18.68-8.3 16.75-10.8 14.73-13.08 12.7-15.35 10.9-16.95L10.9-16.95 20.85-27.3Q22.8-29.3 22.83-30.38 22.85-31.45 21.2-31.55L21.2-31.55Q21-32.1 20.95-32.73 20.9-33.35 20.9-33.95L20.9-33.95Q21.75-33.9 23.2-33.85 24.65-33.8 26.15-33.8L26.15-33.8Q27.15-33.8 28.18-33.83 29.2-33.85 30.13-33.88 31.05-33.9 31.65-33.95L31.65-33.95Q31.65-33.4 31.6-32.7 31.55-32 31.35-31.55L31.35-31.55Q30.2-31.5 29.15-31.1 28.1-30.7 26.95-29.83 25.8-28.95 24.25-27.25L24.25-27.25 15.65-18.15 15.9-19.7Q18.15-17.6 20.73-14.4 23.3-11.2 26.2-7.35L26.2-7.35Q27.4-5.75 28.38-4.7 29.35-3.65 30.55-3.1 31.75-2.55 33.6-2.4L33.6-2.4Q33.6-1.9 33.52-1.25 33.45-0.6 33.3 0L33.3 0Q32.35 0 31.23 0 30.1 0 28.93 0.05 27.75 0.1 26.63 0.15 25.5 0.2 24.6 0.3ZM2.6 0.15L2.6 0.15Q2.6-0.6 2.68-1.23 2.75-1.85 2.9-2.25L2.9-2.25Q4.25-2.35 4.98-2.75 5.7-3.15 6-4.1 6.3-5.05 6.3-6.8L6.3-6.8 6.3-27Q6.3-28.8 6-29.73 5.7-30.65 4.98-31.05 4.25-31.45 2.9-31.55L2.9-31.55Q2.7-32 2.65-32.63 2.6-33.25 2.6-33.95L2.6-33.95Q3.55-33.9 4.63-33.88 5.7-33.85 6.88-33.83 8.05-33.8 9.1-33.8L9.1-33.8Q10.2-33.8 11.3-33.83 12.4-33.85 13.45-33.88 14.5-33.9 15.5-33.95L15.5-33.95Q15.5-33.25 15.45-32.63 15.4-32 15.25-31.55L15.25-31.55Q13.95-31.45 13.18-31.05 12.4-30.65 12.1-29.73 11.8-28.8 11.8-27L11.8-27 11.8-6.8Q11.8-5.05 12.1-4.1 12.4-3.15 13.18-2.75 13.95-2.35 15.25-2.25L15.25-2.25Q15.4-1.85 15.45-1.23 15.5-0.6 15.5 0.15L15.5 0.15Q14.1 0.05 12.45 0.03 10.8 0 9.2 0L9.2 0Q7.55 0 5.75 0.03 3.95 0.05 2.6 0.15ZM36.4 0.15L36.4 0.15Q36.4-0.45 36.47-1.1 36.55-1.75 36.7-2.25L36.7-2.25Q38.7-2.3 39.4-3.2 40.1-4.1 40.1-6.6L40.1-6.6 40.1-15.95Q40.1-17.15 39.87-17.93 39.65-18.7 38.85-19.1 38.05-19.5 36.35-19.5L36.35-19.5Q36.35-20.1 36.47-20.65 36.6-21.2 36.85-21.65L36.85-21.65Q37.85-21.65 39.35-21.9 40.85-22.15 42.2-22.55 43.55-22.95 44.2-23.35L44.2-23.35Q44.7-23.15 45.05-22.65 45.4-22.15 45.4-21.15L45.4-21.15 45.4-6.6Q45.4-4.1 46.07-3.2 46.75-2.3 48.4-2.25L48.4-2.25Q48.55-1.75 48.6-1.05 48.65-0.35 48.65 0.15L48.65 0.15Q47.85 0.1 46.85 0.08 45.85 0.05 44.75 0.03 43.65 0 42.6 0L42.6 0Q41.5 0 40.37 0.03 39.25 0.05 38.22 0.08 37.2 0.1 36.4 0.15ZM42.3-28.5L42.3-28.5Q40.85-28.5 39.92-29.38 39-30.25 39-31.55L39-31.55Q39-33.05 40-33.95 41-34.85 42.35-34.85L42.35-34.85Q43.9-34.85 44.8-33.95 45.7-33.05 45.7-31.6L45.7-31.6Q45.7-30.35 44.72-29.43 43.75-28.5 42.3-28.5ZM71.45-3.6L71.45-3.6Q70.1-1.6 68.05-0.58 66 0.45 63.15 0.45L63.15 0.45Q60.35 0.45 57.9-0.88 55.45-2.2 53.87-4.83 52.3-7.45 52.3-11.35L52.3-11.35Q52.3-14.35 53.55-17.1 54.8-19.85 57.2-21.6 59.6-23.35 63.05-23.35L63.05-23.35Q65.5-23.35 67.45-22.8 69.4-22.25 70.85-21.15L70.85-21.15Q70.65-19.7 70.55-18.28 70.45-16.85 70.45-15.3L70.45-15.3Q69.95-15.05 69.15-14.95 68.35-14.85 67.7-14.85L67.7-14.85Q67.45-17.75 66.15-19.28 64.85-20.8 62.75-20.8L62.75-20.8Q60.45-20.8 59.07-18.53 57.7-16.25 57.7-12.1L57.7-12.1Q57.7-9.7 58.5-7.53 59.3-5.35 60.87-4 62.45-2.65 64.75-2.65L64.75-2.65Q66.35-2.65 67.75-3.35 69.15-4.05 70.2-5.3L70.2-5.3Q70.65-5.05 70.97-4.6 71.3-4.15 71.45-3.6ZM83.84-11.35L83.84-7.75Q83.84-5.6 84.29-4.45 84.74-3.3 85.77-2.85 86.79-2.4 88.44-2.25L88.44-2.25Q88.59-1.8 88.67-1.2 88.74-0.6 88.74 0.15L88.74 0.15Q87.94 0.1 86.84 0.08 85.74 0.05 84.49 0.03 83.24 0 81.99 0L81.99 0Q80.09 0 78.04 0.03 75.99 0.05 74.84 0.15L74.84 0.15Q74.84-0.65 74.89-1.25 74.94-1.85 75.14-2.25L75.14-2.25Q76.49-2.35 77.22-2.75 77.94-3.15 78.24-4.1 78.54-5.05 78.54-6.8L78.54-6.8 78.54-11.35 83.84-11.35ZM82.94-15.3L83.84-14.65 83.84-10.6 78.54-10.6 78.54-16.15 83.84-21Q83.84-19.45 83.54-18.1 83.24-16.75 82.94-15.3L82.94-15.3ZM83.84-11.9L82.74-15Q83.24-16.35 83.57-17.32 83.89-18.3 84.24-18.9L84.24-18.9Q85.34-20.65 86.87-21.8 88.39-22.95 90.39-22.95L90.39-22.95Q92.29-22.95 93.84-21.75L93.84-21.75Q93.74-20.9 93.64-19.78 93.54-18.65 93.52-17.53 93.49-16.4 93.49-15.45L93.49-15.45Q92.94-15.25 92.04-15.1 91.14-14.95 90.24-14.95L90.24-14.95Q90.14-17.2 89.52-17.98 88.89-18.75 87.89-18.75L87.89-18.75Q87.09-18.75 86.12-17.8 85.14-16.85 84.49-15.3 83.84-13.75 83.84-11.9L83.84-11.9ZM83.84-21L78.54-10.6 78.54-15.8Q78.54-17.1 78.32-17.88 78.09-18.65 77.29-19.05 76.49-19.45 74.84-19.5L74.84-19.5Q74.84-20.1 74.94-20.65 75.04-21.2 75.29-21.65L75.29-21.65Q77.19-21.75 79.34-22.25 81.49-22.75 82.64-23.35L82.64-23.35Q83.14-23.15 83.49-22.65 83.84-22.15 83.84-21L83.84-21ZM107.79 0.45L107.79 0.45Q104.04 0.45 101.62-1.15 99.19-2.75 97.97-5.45 96.74-8.15 96.74-11.4L96.74-11.4Q96.74-14.7 98.04-17.4 99.34-20.1 101.77-21.73 104.19-23.35 107.49-23.35L107.49-23.35Q110.84-23.35 112.89-21.95 114.94-20.55 115.97-18.2 116.99-15.85 117.14-12.9L117.14-12.9Q116.94-11.75 116.29-11L116.29-11Q115.29-11 113.57-11 111.84-11 109.72-10.98 107.59-10.95 105.37-10.88 103.14-10.8 101.19-10.7L101.19-10.7 101.19-13.45 111.49-13.45Q111.49-16.75 110.37-18.75 109.24-20.75 107.14-20.75L107.14-20.75Q105.94-20.75 104.84-20 103.74-19.25 103.04-17.48 102.34-15.7 102.34-12.55L102.34-12.55Q102.34-10.05 102.99-7.78 103.64-5.5 105.19-4.08 106.74-2.65 109.59-2.65L109.59-2.65Q111.24-2.65 112.87-3.35 114.49-4.05 115.74-5.35L115.74-5.35Q116.14-5.15 116.52-4.6 116.89-4.05 116.94-3.55L116.94-3.55Q115.19-1.4 112.92-0.48 110.64 0.45 107.79 0.45ZM136.54 0.45L136.54 0.45Q135.94 0.2 135.59-0.48 135.24-1.15 135.24-2.5L135.24-2.5Q135.24-3 135.31-3.68 135.39-4.35 135.54-4.95L135.54-4.95 135.69-4.95Q135.49-4 134.91-3.05 134.34-2.1 133.49-1.35L133.49-1.35Q132.59-0.6 131.24-0.13 129.89 0.35 128.04 0.35L128.04 0.35Q124.84 0.35 123.11-1.07 121.39-2.5 121.39-5.05L121.39-5.05Q121.39-7 122.31-8.38 123.24-9.75 124.71-10.68 126.19-11.6 127.94-12.15 129.69-12.7 131.41-13.03 133.14-13.35 134.54-13.55L134.54-13.55Q134.54-15.45 134.46-16.55 134.39-17.65 134.16-18.32 133.94-19 133.49-19.5L133.49-19.5Q132.89-20.2 132.14-20.55 131.39-20.9 130.49-20.9L130.49-20.9Q128.89-20.9 127.99-19.93 127.09-18.95 126.69-17.63 126.29-16.3 126.19-15.15L126.19-15.15Q125.49-15.15 124.59-15.25 123.69-15.35 123.14-15.55L123.14-15.55Q123.24-16.85 123.21-18.4 123.19-19.95 122.89-21.15L122.89-21.15Q124.99-22.2 127.39-22.78 129.79-23.35 131.84-23.35L131.84-23.35Q133.99-23.35 135.44-22.8 136.89-22.25 137.69-21.35L137.69-21.35Q138.94-20.15 139.39-18.18 139.84-16.2 139.84-12.8L139.84-12.8 139.84-7.65Q139.84-6.2 140.06-5.35 140.29-4.5 140.94-4.13 141.59-3.75 142.89-3.7L142.89-3.7Q142.94-3.1 142.86-2.4 142.79-1.7 142.54-1.1L142.54-1.1Q141.14-1.05 139.49-0.65 137.84-0.25 136.54 0.45ZM129.74-2.8L129.74-2.8Q130.84-2.8 131.94-3.53 133.04-4.25 133.79-5.73 134.54-7.2 134.54-9.6L134.54-9.6 134.54-11.35Q133.24-11.15 131.89-10.85 130.54-10.55 129.41-10 128.29-9.45 127.61-8.55 126.94-7.65 126.94-6.15L126.94-6.15Q126.94-4.4 127.79-3.6 128.64-2.8 129.74-2.8ZM155.34 0.45L155.34 0.45Q152.24 0.45 150.71-1.15 149.19-2.75 149.19-6.4L149.19-6.4 149.19-19.3Q148.44-19.55 147.61-19.73 146.79-19.9 145.59-19.95L145.59-19.95Q145.59-20.65 145.69-21.2 145.79-21.75 146.04-22.4L146.04-22.4 149.19-22.4 149.19-28.85Q150.39-29.1 151.56-29.7 152.74-30.3 153.54-31L153.54-31Q154.09-30.8 154.29-30.35 154.49-29.9 154.49-28.25L154.49-28.25 154.49-22.4 160.89-22.4Q160.89-21.8 160.79-21.15 160.69-20.5 160.44-19.9L160.44-19.9Q158.64-19.9 157.16-19.7 155.69-19.5 154.49-19.25L154.49-19.25 154.49-7.4Q154.49-5.65 154.81-4.58 155.14-3.5 155.76-3 156.39-2.5 157.29-2.5L157.29-2.5Q158.29-2.5 159.06-2.78 159.84-3.05 160.54-3.6L160.54-3.6Q161.19-2.8 161.29-1.7L161.29-1.7Q160.44-0.8 158.74-0.18 157.04 0.45 155.34 0.45ZM175.53 0.45L175.53 0.45Q171.78 0.45 169.36-1.15 166.93-2.75 165.71-5.45 164.48-8.15 164.48-11.4L164.48-11.4Q164.48-14.7 165.78-17.4 167.08-20.1 169.51-21.73 171.93-23.35 175.23-23.35L175.23-23.35Q178.58-23.35 180.63-21.95 182.68-20.55 183.71-18.2 184.73-15.85 184.88-12.9L184.88-12.9Q184.68-11.75 184.03-11L184.03-11Q183.03-11 181.31-11 179.58-11 177.46-10.98 175.33-10.95 173.11-10.88 170.88-10.8 168.93-10.7L168.93-10.7 168.93-13.45 179.23-13.45Q179.23-16.75 178.11-18.75 176.98-20.75 174.88-20.75L174.88-20.75Q173.68-20.75 172.58-20 171.48-19.25 170.78-17.48 170.08-15.7 170.08-12.55L170.08-12.55Q170.08-10.05 170.73-7.78 171.38-5.5 172.93-4.08 174.48-2.65 177.33-2.65L177.33-2.65Q178.98-2.65 180.61-3.35 182.23-4.05 183.48-5.35L183.48-5.35Q183.88-5.15 184.26-4.6 184.63-4.05 184.68-3.55L184.68-3.55Q182.93-1.4 180.66-0.48 178.38 0.45 175.53 0.45Z" opacity="1" transform="matrix(1,0,0,1,0,0)" fill="#000000" class="wordmark-text-0" data-fill-palette-color="primary" id="text-0"></path></svg></g></svg></g></svg></g></svg></g><g transform="matrix(1,0,0,1,0,3.3652438433351577)"><svg viewBox="0 0 42.369749884201156 69.85676409610534" height="69.85676409610534" width="42.369749884201156"><g><svg xmlns="http://www.w3.org/2000/svg" xmlns:xlink="http://www.w3.org/1999/xlink" version="1.1" x="0" y="0" viewBox="33.941554115680816 23.625 32.086445884319176 52.902254248593735" enable-background="new 0 0 100 100" xml:space="preserve" height="69.85676409610534" width="42.369749884201156" class="icon-icon-0" data-fill-palette-color="accent" id="icon-0"><path fill-rule="evenodd" clip-rule="evenodd" d="M52.9 35.3C53.2 35.4 53.3 35.4 53.5 35.2 53.6 35.1 53.7 35.1 53.8 35S54 34.9 54.1 34.8 54.3 34.7 54.4 34.6 54.6 34.5 54.7 34.4 55.2 34 55.4 33.9C55.5 33.8 55.7 33.6 55.8 33.6S56 33.4 56.1 33.4 56.3 33.2 56.4 33.2 56.6 33 56.7 33L56.9 32.9 57 32.7H57.2L57.3 32.5H57.5L57.6 32.3C57.8 32.2 57.9 32.2 58.1 32.1 58.2 32.1 58.1 32 58.2 32L58.4 31.9 58.5 31.7H58.7L58.8 31.5H59L59.1 31.3H59.3L59.4 31.1H59.6L59.7 30.9C59.9 30.8 60.1 30.8 60.4 30.6L60.5 30.5C60.6 30.4 60.8 30.5 60.9 30.4L61 30.2H61.2C61.3 30.1 61.3 29.9 61.4 29.9 61.9 29.6 62.4 29.3 62.8 29.2 63.8 29.1 64.4 29.7 65.2 30.3 65.3 30.5 65.1 30.7 65.2 30.9S65.3 31.6 65.2 32V32.2C65.1 32.3 65 32.5 64.9 32.7 64.9 32.8 64.9 32.9 64.8 33 64.8 33.1 64.6 33.1 64.6 33.1 64.4 33.4 64.2 33.6 64 33.9S63.7 34.5 63.5 34.7C63.2 35 62.7 35.1 62.3 35.4 62.2 35.5 62.1 35.7 61.9 35.8 61.8 35.9 61.4 36.1 61.2 36.2 61.1 36.2 61.2 36.3 61.1 36.3S60.9 36.5 60.8 36.5 60.5 36.7 60.3 36.8C60.2 36.9 60.2 37 60.1 37H59.9L59.8 37.2C59.7 37.3 59.6 37.2 59.5 37.3S59.4 37.5 59.3 37.6 59.1 37.6 59 37.7C58.8 37.8 58.7 38.1 58.5 38.2 58.4 38.3 58.4 38.3 58.3 38.3S58.1 38.5 58 38.6H57.8L57.7 38.8H57.5L57.4 39H57.2L57.1 39.2C57 39.3 56.9 39.2 56.8 39.3 56.6 39.4 56.5 39.7 56.3 39.8L55.4 40.7C55.3 40.9 55 40.9 55 41.2 55.1 41.6 55.2 41.7 55.5 41.9 55.6 41.9 55.7 42 55.7 42L56.1 42.4C56.2 42.5 56.3 42.4 56.4 42.5 56.5 42.5 56.5 42.7 56.5 42.7 56.6 42.8 56.7 42.7 56.8 42.8 56.9 42.8 56.9 43 57 43 57.1 43.1 57.3 43.2 57.4 43.3S57.6 43.3 57.7 43.4 57.9 43.8 58.1 44C58.5 44.1 58.9 44.2 59.2 44.5L59.6 44.9C59.7 45 59.7 45.1 59.8 45.1H60C60.1 45.2 60.3 45.3 60.5 45.5 60.6 45.6 60.6 45.7 60.7 45.7H60.9C61 45.8 61.2 46 61.4 46.1 61.5 46.2 61.5 46.3 61.6 46.3H61.8C61.9 46.4 62.1 46.6 62.3 46.7 62.4 46.7 62.5 46.7 62.6 46.8S62.9 47.2 63.1 47.4C63.2 47.4 63.3 47.6 63.3 47.6H63.5V47.7C63.6 47.8 63.7 47.7 63.8 47.8 63.9 47.8 63.9 48 64 48 64.1 48.1 64.2 48 64.3 48.1 64.5 48.2 64.6 48.5 64.8 48.7 64.9 48.8 65.1 48.9 65.2 49S65.2 49.3 65.3 49.4L65.5 49.5V49.7L65.7 49.8C65.8 50 65.7 50.1 65.9 50.2 66 50.6 65.8 50.9 65.8 51.2 65.9 51.2 65.9 51.3 65.9 51.4S66.1 51.7 66 52C65.9 52.4 65.2 53 64.8 53.2 64.7 53.5 64.5 53.7 64.3 53.9 64.1 54 63.8 54 63.6 54.1 63.7 54.1 63 54.4 62.9 54.2 62.8 54.1 62.8 54.1 62.6 54.1H62.4C62.3 54 61.5 54 61.2 53.9 61.2 53.9 61.2 53.8 61.1 53.8S60.9 53.6 60.7 53.6L60.4 53.5 60.1 53.2C60 53.2 60 53.1 59.9 53.1L59.6 53C60 53.3 60 53.1 59.8 53L59.6 52.9 59.3 52.6H59.1L59 52.4H58.8C58.7 52.3 58.7 52.1 58.5 52.1L58.3 52 58 51.7C57.9 51.7 57.9 51.6 57.8 51.6 57.7 51.5 57.5 51.3 57.4 51.3S57.3 51.1 57.2 51.1H57L56.7 50.8C56.6 50.8 56.6 50.7 56.5 50.7L56.4 50.6C56 50.4 55.6 50.5 55.3 50.3 55.2 50.3 55.3 50.2 55.2 50.2 55 50.2 55 49.9 54.8 49.8H54.6C54.5 49.7 54.5 49.6 54.3 49.5 54.2 49.4 54.1 49.4 54 49.3S53.8 49.2 53.7 49.1 53.2 48.7 52.9 48.7C52.7 48.8 52.7 48.9 52.6 49.1S52.5 49.5 52.5 49.7C52.4 50.3 52.5 50.9 52.4 51.7 52.4 52 52.3 52.4 52.3 52.9 52.3 53.2 52.4 53.2 52.3 53.5 52.3 53.6 52.5 54.4 52.3 54.5 52 54.8 52 55.5 52 55.9S52 56.7 51.9 57.1C51.9 57.5 51.7 57.9 51.7 58.2 51.6 59.2 51.7 60.1 51.7 61.1V61.3C51.6 61.9 51.7 63.1 51.7 64 51.7 64.3 51.6 64.5 51.6 64.7 51.6 65 51.7 65.3 51.7 65.6 51.8 66.5 51.8 67.6 51.8 68.6 51.8 69.4 51.8 70.3 51.7 71 51.6 71.3 51.7 71.8 51.6 72.3 51.6 72.6 51.5 72.9 51.4 73.1 51.2 73.8 51.1 74.8 51.1 75.8 51 75.9 50.9 75.9 50.8 76L50.7 76.2C50.6 76.3 50.4 76.2 50.3 76.3 50.1 76.4 49.8 76.6 49.3 76.5 49.1 76.5 48.6 76.1 48.2 76H48L47.7 75.9C47.6 75.7 47.4 75.7 47.2 75.5L46.8 75.1C46.4 74.8 46.2 74.6 46.1 74.3 45.9 73.9 46 73.5 46 73 45.9 71.9 45.9 70.9 45.9 69.6 45.9 69.6 46 69.6 46 69.5 46 69.5 45.9 69.5 45.9 69.4V69.1C45.9 67.8 45.9 66.5 46 65.1 46 64.9 46.1 64.7 46.1 64.5 46.2 62.6 45.9 60.3 46.1 58.3 46.2 57.4 46.2 56.6 46.2 55.7 46.2 53.8 46 51.9 46.2 50.3 46.3 49.4 46.7 48.6 46.2 47.8 45.8 47.6 45.5 48.1 45.2 48.1 45.1 48.1 45 48.3 44.9 48.3S44.8 48.4 44.7 48.4 44.6 48.6 44.5 48.6H44.3V48.7C44.2 48.7 44.1 48.7 44 48.8L43.9 49C43.8 49.1 43.7 49 43.6 49.1L43.5 49.3C43.4 49.4 43.3 49.3 43.2 49.4S43 49.8 42.8 49.9C42.7 50 42.6 49.9 42.5 50L42.4 50.2C42.3 50.3 42.2 50.2 42.1 50.3S41.8 50.7 41.6 50.8C41.5 50.9 41.3 51 41.2 51.1S41.1 51.3 41 51.3H40.8C40.3 51.8 40.3 52 40 52 39.8 52 39.8 52.3 39.6 52.3 39.5 52.3 39.5 52.5 39.4 52.5H39.2V52.6C38.9 52.8 38.6 52.7 38.3 52.8 38.3 52.8 38.3 52.9 38.2 52.9 38 52.9 37.4 53.3 37 53.2 37 53.2 37 53.1 36.9 53.1 36.7 53.1 36.6 53.1 36.4 53 36.3 53 36.1 53 36 52.9L35.6 52.5C35.5 52.4 35.3 52.2 35.2 52 35 52 35 52 35 51.8 35 51.7 34.9 51.7 34.9 51.7 34.8 51.3 34.8 50.2 35.1 49.7 35.1 49.6 35.2 49.7 35.2 49.6S35.5 49.2 35.6 49.1H35.8C35.9 49 35.9 48.9 36.1 48.8S36.7 48.5 36.9 48.3C37.2 48 37.3 47.7 37.7 47.5 37.8 47.5 37.8 47.4 37.9 47.4 38 47.3 38.1 47.3 38.2 47.2S38.4 47.1 38.5 47 38.8 46.9 38.8 46.9C38.9 46.8 38.9 46.6 39.1 46.6 39.2 46.6 39.3 46.4 39.4 46.4S39.6 46.2 39.7 46.2 40 45.9 40.2 45.8C40.4 45.6 40.7 45.5 41 45.3S41.9 44.7 42.4 44.3C42.5 44.3 42.4 44.2 42.5 44.2S42.7 44 42.9 44C43 44 43.1 43.8 43.2 43.8S43.5 43.7 43.6 43.6C44.2 43.2 45.2 42.9 44.7 42 44.7 41.9 44.6 42 44.6 41.9 44.6 41.7 44 41.3 43.8 41.1L43.2 40.5C42.9 40.3 42.6 40.3 42.4 40.1 42.3 39.8 41.9 39.5 41.7 39.2 41.6 39.1 41.5 38.9 41.4 38.7 41.3 38.6 41 38.3 40.8 38.2 40.7 38.1 40.3 37.8 40.1 37.7 40 37.7 39.9 37.7 39.8 37.6L39.7 37.4C39.6 37.3 39.5 37.3 39.3 37.2 39.2 37.1 39.1 37.1 39 37L38.8 36.8C38.6 36.7 38.4 36.5 38.2 36.4L38.1 36.2C38 36.1 37.9 36.1 37.7 36L37.6 35.8C37.5 35.7 37.4 35.7 37.2 35.6L37.1 35.4C37 35.3 36.8 35.3 36.7 35.2L36.3 34.8C36.2 34.7 36.3 34.6 36.2 34.5 36.2 34.5 36 34.5 36 34.4 35.9 34.2 35.8 34.1 35.7 33.9 35.6 33.8 35.4 33.7 35.3 33.6S35.3 33.4 35.2 33.3 34.7 33 34.6 32.8C34.5 32.7 34.6 32.6 34.5 32.5L34.3 32.4C34.2 32.3 34.2 32.2 34.2 32.1L34.1 31.7C33.8 31.5 34 29.6 34.1 29.2 34.1 29.1 34.2 29.2 34.2 29.1S34.4 28.9 34.5 28.8 34.7 28.6 34.9 28.5C35 28.5 35 28.4 35.1 28.4S35.5 28.1 35.7 28.1C35.8 28.1 35.9 27.9 36 27.9S36.3 27.7 36.6 27.7C37.6 27.6 38.3 28.3 39.4 28.1L39.7 28.4C40.2 28.8 40.7 29.4 41.3 29.9 41.6 30.1 41.8 30.4 42.1 30.6 42.2 30.7 42.3 30.7 42.4 30.8 42.4 30.8 42.8 31.2 42.9 31.2L43.1 31.3 43.2 31.5H43.4C43.5 31.6 43.5 31.7 43.6 31.8H43.8C43.9 31.9 43.9 32 44.1 32.1S44.6 32.4 44.8 32.6C44.9 32.7 45 32.7 45.1 32.8L45.2 33H45.4C45.5 33.1 45.5 33.2 45.6 33.3H45.8C45.9 33.4 46.2 33.8 46.5 33.8 46.9 33.3 46.8 32.8 46.9 32.1 47 30.4 46.8 28 47.1 26.4 47.1 26.2 47.2 25.9 47.3 25.7 47.3 25.6 47.3 25.4 47.4 25.3 47.4 25.2 47.6 25.2 47.6 25.1 47.8 24.8 48.1 24.5 48.4 24.3 48.5 24.2 48.6 24 48.7 24 48.8 23.9 49.1 23.9 49.3 23.9 49.4 23.9 49.5 23.7 49.5 23.7H49.8C50.1 23.6 50.3 23.6 50.9 23.7 51.2 23.7 51.4 23.7 51.6 23.8 51.6 23.8 51.6 23.9 51.7 23.9S52.6 24.6 52.6 24.8C52.6 24.8 52.7 24.9 52.7 25 52.8 25.2 52.8 25.3 52.9 25.5 52.9 25.6 53 25.7 53 25.8 53.1 26.1 53.3 27.5 53.2 28.2 53.1 28.7 53.1 29.9 53.1 30.8 52.8 32.1 52.8 33.8 52.9 35.3" fill="#000000" data-fill-palette-color="accent"></path></svg></g></svg></g></svg></g><defs></defs></svg><rect width="395.5199999999999" height="66.43371069831191" fill="none" stroke="none" visibility="hidden"></rect></g></svg></g></svg>