<?xml version="1.0" encoding="UTF-8"?>
<svg xmlns="http://www.w3.org/2000/svg" id="Layer_1" data-name="Layer 1" viewBox="0 0 175.41 20.44">
  <defs>
    <style>
      .cls-1 {
        fill: #e77400;
      }

      .cls-2 {
        fill: #12394a;
      }
    </style>
  </defs>
  <g>
    <g>
      <path class="cls-2" d="m9.26,3.8h-4.39c-.2,0-.35.16-.35.35v3.66c0,.2.16.35.35.35h4.33c1.76,0,2.64-.73,2.64-2.19s-.86-2.19-2.58-2.19Zm.03,7.72h-4.42c-.2,0-.35.16-.35.35v4.26c0,.2.16.35.35.35h4.42c1.02,0,1.77-.2,2.24-.6s.71-1.01.71-1.85c0-1.68-.98-2.53-2.95-2.53ZM0,1.65C0,.9.61.28,1.37.28h8.49c4.26,0,6.39,1.75,6.39,5.25,0,1.08-.21,1.95-.62,2.6-.42.65-1.09,1.18-2.02,1.58v.11c1.06.4,1.83.97,2.32,1.72.48.75.72,1.75.72,3,0,1.91-.57,3.33-1.7,4.24-1.14.92-2.89,1.38-5.25,1.38H1.37c-.75,0-1.37-.61-1.37-1.37V1.65Z"></path>
      <path class="cls-2" d="m23.25,20.44c-2.52,0-4.42-.62-5.69-1.86-1.18-1.15-1.78-2.82-1.81-5.01,0-.3.24-.54.54-.54h3.03c.34,0,.63.27.65.61.12,2.05,1.21,3.08,3.29,3.08s3.12-.92,3.12-2.75c0-.87-.24-1.5-.73-1.9s-1.22-.6-2.23-.6h-1.29c-.27,0-.5-.22-.5-.5v-2.36c0-.27.22-.5.5-.5h.95c.91,0,1.57-.16,1.99-.48.42-.32.63-.84.63-1.56,0-1.57-.88-2.36-2.64-2.36-1.67,0-2.58.82-2.75,2.45-.03.33-.31.59-.65.59h-3.04c-.3,0-.55-.25-.54-.56.19-4.13,2.55-6.2,7.09-6.2,2.23,0,3.93.48,5.1,1.43,1.16.96,1.75,2.31,1.75,4.07,0,2.1-.91,3.46-2.73,4.09v.11c2.29.57,3.44,2.13,3.44,4.68,0,1.91-.65,3.4-1.95,4.46-1.3,1.06-3.14,1.59-5.52,1.59Z"></path>
    </g>
    <g>
      <rect class="cls-1" x="50.67" y="6.66" width="2.88" height="2.88" rx=".46" ry=".46"></rect>
      <rect class="cls-2" x="48.77" y="2.75" width="2.08" height="2.08" rx=".44" ry=".44"></rect>
      <rect class="cls-1" x="54.94" y="5" width="1.58" height="1.58" rx=".36" ry=".36"></rect>
      <rect class="cls-1" x="56.34" y="1.23" width="1.11" height="1.11" rx=".26" ry=".26"></rect>
      <rect class="cls-1" x="52.57" y="1.9" width="1.89" height="1.89" rx=".44" ry=".44"></rect>
      <rect class="cls-2" x="49.97" y="11.42" width="2.14" height="2.14" rx=".43" ry=".43"></rect>
      <rect class="cls-1" x="49.15" y="15.39" width="1.65" height="1.65" rx=".34" ry=".34"></rect>
      <rect class="cls-2" x="46.18" y="17.4" width="1.36" height="1.36" rx=".29" ry=".29"></rect>
      <path class="cls-1" d="m47.45,12.15h-1.69c-.23,0-.41.19-.41.41v2.2c0,.23.19.41.41.41h2.2c.23,0,.41-.19.41-.41v-2.2c0-.23-.19-.41-.41-.41h-.51Z"></path>
      <path class="cls-2" d="m48.35,6.73h-.6c-.21,0-.39.17-.39.39v1.15c0,.21.17.39.39.39h1.15c.21,0,.39-.17.39-.39v-1.15c0-.21-.17-.39-.39-.39h-.55Z"></path>
      <path class="cls-2" d="m47.89,11.25c.12,0,.23-.1.23-.22.01-.27.02-.54.02-.81,0-.19,0-.38,0-.57,0-.12-.11-.22-.23-.22h-.97c-.18,0-.33-.15-.33-.33v-2.82c0-.18.15-.33.33-.33h.52c.06,0,.11-.06.09-.12-.23-.72-.53-1.37-.9-1.95-.05-.08-.17-.05-.17.05v1.14c0,.19-.15.34-.34.34h-2.58c-.19,0-.34-.15-.34-.34v-2.58c0-.19.15-.34.34-.34h1.17c.12,0,.18-.16.07-.23-1.51-1.07-3.52-1.61-6.04-1.61h-6.92c-.75,0-1.37.61-1.37,1.37v17.14c0,.75.61,1.37,1.37,1.37h6.92c2.9,0,5.13-.72,6.68-2.14v-1.04c0-.15.12-.27.27-.27h.68c.11,0,.21-.05.26-.14.05-.08.1-.16.15-.25.07-.12-.01-.27-.15-.27h-1.68c-.28,0-.52-.23-.52-.52v-3.77c0-.28.23-.52.52-.52h2.94Zm-5.32,3.57c-.79.98-2.07,1.48-3.83,1.48h-3.45c-.2,0-.35-.16-.35-.35V4.5c0-.2.16-.35.35-.35h3.45c1.76,0,3.04.49,3.83,1.48.79.98,1.19,2.52,1.19,4.6s-.4,3.62-1.19,4.6Z"></path>
      <rect class="cls-1" x="44.04" y="2.97" width="1.58" height="1.58" rx=".31" ry=".31"></rect>
      <rect class="cls-1" x="48.24" y=".48" width="1.05" height="1.05" rx=".26" ry=".26"></rect>
    </g>
  </g>
  <g>
    <path class="cls-1" d="m66.32,8.48h-3.37V.4h3.37c2.55,0,3.82,1.35,3.82,4.04s-1.27,4.04-3.82,4.04Zm-1.55-1.57h1.55c.72,0,1.24-.2,1.56-.6.32-.4.48-1.02.48-1.87s-.16-1.47-.48-1.87c-.32-.4-.84-.6-1.56-.6h-1.55v4.94Z"></path>
    <path class="cls-1" d="m71.38,8.48V.4h1.93v8.08h-1.93Z"></path>
    <path class="cls-1" d="m74.56,4.45c0-1.36.34-2.4,1.02-3.1.68-.71,1.66-1.06,2.94-1.06,1.08,0,1.92.24,2.53.73s.94,1.19,1,2.09h-1.77c-.11-.84-.7-1.26-1.78-1.26-.75,0-1.29.21-1.64.64-.35.43-.53,1.08-.53,1.96s.18,1.52.53,1.94c.35.42.9.64,1.66.64.58,0,1.04-.12,1.36-.36.32-.24.48-.59.48-1.03,0-.04,0-.14.02-.31h-1.94v-1.36h3.71v1.21c0,1.13-.3,1.99-.91,2.56-.6.58-1.5.87-2.68.87-1.31,0-2.3-.35-2.98-1.06-.68-.7-1.02-1.73-1.02-3.09Z"></path>
    <path class="cls-1" d="m83.48,8.48V.4h1.93v8.08h-1.93Z"></path>
    <path class="cls-1" d="m88.94,1.92h-2.54V.4h7v1.52h-2.55v6.56h-1.9V1.92Z"></path>
    <path class="cls-1" d="m94.94,8.48h-1.88l3.07-8.08h1.9l3.07,8.08h-1.88l-.5-1.35h-3.29l-.5,1.35Zm.99-2.77h2.3l-1.13-3.07h-.03l-1.13,3.07Z"></path>
    <path class="cls-1" d="m101.88.4h1.86v6.45h3.67v1.63h-5.53V.4Z"></path>
    <path class="cls-1" d="m68.9,20.04h-5.96v-8.08h5.88v1.52h-3.98v1.65h3.59v1.41h-3.59v1.97h4.06v1.52Z"></path>
    <path class="cls-1" d="m69.34,18.47c.49.06.89.09,1.2.09.76,0,1.29-.12,1.59-.37.3-.25.45-.67.45-1.27v-4.96h1.92v5.17c0,1.05-.28,1.81-.83,2.3-.55.48-1.41.73-2.59.73-.66,0-1.24-.06-1.74-.18v-1.5Z"></path>
    <path class="cls-1" d="m81.92,20.04h-5.96v-8.08h5.88v1.52h-3.98v1.65h3.59v1.41h-3.59v1.97h4.06v1.52Z"></path>
    <path class="cls-1" d="m83.17,20.04v-8.08h1.65l3.68,5.1h.05v-5.1h1.86v8.08h-1.65l-3.68-5.1h-.05v5.1h-1.86Z"></path>
    <path class="cls-1" d="m95.36,20.04h-3.37v-8.08h3.37c2.55,0,3.82,1.35,3.82,4.04s-1.27,4.04-3.82,4.04Zm-1.55-1.57h1.55c.72,0,1.23-.2,1.56-.6.32-.4.48-1.02.48-1.87s-.16-1.47-.48-1.87c-.32-.4-.84-.6-1.56-.6h-1.55v4.94Z"></path>
    <path class="cls-1" d="m101.1,19.1c-.66-.71-.99-1.74-.99-3.09s.33-2.39.99-3.09c.66-.71,1.63-1.06,2.9-1.06s2.24.35,2.9,1.06c.65.71.98,1.74.98,3.09s-.33,2.39-.98,3.09c-.65.71-1.62,1.06-2.9,1.06s-2.24-.35-2.9-1.06Zm1.32-5.02c-.35.42-.52,1.06-.52,1.93s.17,1.51.52,1.93.87.62,1.58.62,1.22-.21,1.57-.62.52-1.06.52-1.93-.17-1.51-.52-1.93c-.35-.42-.87-.62-1.57-.62s-1.24.21-1.58.62Z"></path>
    <path class="cls-1" d="m110.94,20.04h-1.81v-8.08h2.23l2.07,5.11,2.07-5.11h2.23v8.08h-1.82v-4.83h-.03l-1.72,4.35h-1.43l-1.72-4.35h-.05v4.83Z"></path>
    <path class="cls-1" d="m122.34,20.16c-1.14,0-2-.24-2.59-.73s-.88-1.21-.88-2.16h1.72c0,.45.15.79.46,1.03s.74.36,1.31.36c.49,0,.88-.09,1.17-.26.28-.17.43-.41.43-.71,0-.23-.09-.42-.27-.56-.18-.14-.42-.25-.7-.31-.29-.07-.61-.13-.95-.18s-.69-.13-1.04-.22c-.35-.09-.66-.21-.95-.36s-.52-.37-.7-.67-.27-.66-.27-1.08c0-.78.28-1.38.84-1.81.56-.43,1.35-.64,2.38-.64s1.89.24,2.46.72c.57.48.86,1.18.86,2.08h-1.72c-.02-.86-.55-1.29-1.59-1.29-.45,0-.8.08-1.06.24-.26.16-.39.37-.39.63,0,.24.12.43.36.57.24.14.54.24.91.28.36.05.75.12,1.18.21.42.1.82.21,1.18.35.36.13.66.37.91.71s.36.76.36,1.27c0,.82-.29,1.44-.88,1.88-.59.44-1.42.66-2.52.66Z"></path>
    <path class="cls-1" d="m129.99,20.16c-1.14,0-2-.24-2.59-.73s-.88-1.21-.88-2.16h1.72c0,.45.15.79.46,1.03s.74.36,1.31.36c.49,0,.88-.09,1.17-.26.28-.17.43-.41.43-.71,0-.23-.09-.42-.27-.56-.18-.14-.42-.25-.7-.31-.29-.07-.61-.13-.95-.18s-.69-.13-1.04-.22c-.35-.09-.66-.21-.95-.36s-.52-.37-.7-.67-.27-.66-.27-1.08c0-.78.28-1.38.84-1.81.56-.43,1.35-.64,2.38-.64s1.89.24,2.46.72c.57.48.86,1.18.86,2.08h-1.72c-.02-.86-.55-1.29-1.59-1.29-.45,0-.8.08-1.06.24-.26.16-.39.37-.39.63,0,.24.12.43.36.57.24.14.54.24.91.28.36.05.75.12,1.18.21.42.1.82.21,1.18.35.36.13.66.37.91.71s.36.76.36,1.27c0,.82-.29,1.44-.88,1.88-.59.44-1.42.66-2.52.66Z"></path>
    <path class="cls-1" d="m140.53,20.04h-5.96v-8.08h5.88v1.52h-3.98v1.65h3.59v1.41h-3.59v1.97h4.06v1.52Z"></path>
    <path class="cls-1" d="m141.78,20.04v-8.08h3.64c1.92,0,2.87.88,2.87,2.63,0,1.15-.45,1.91-1.34,2.3l1.54,3.15h-1.99l-1.33-2.76h-1.54v2.76h-1.86Zm1.86-6.59v2.37h1.59c.45,0,.77-.09.98-.28.21-.19.31-.49.31-.91s-.11-.71-.32-.89c-.21-.19-.54-.28-.98-.28h-1.59Z"></path>
    <path class="cls-1" d="m148.88,11.96h2l1.93,5.61h.06l1.94-5.61h2l-2.93,8.08h-2.05l-2.93-8.08Z"></path>
    <path class="cls-1" d="m157.64,20.04v-8.08h1.93v8.08h-1.93Z"></path>
    <path class="cls-1" d="m161.82,19.1c-.67-.71-1-1.74-1-3.09s.34-2.39,1-3.09c.67-.71,1.64-1.06,2.91-1.06,1.11,0,1.98.26,2.61.78.63.52.97,1.25,1,2.19h-1.8c-.04-.45-.22-.8-.53-1.04-.32-.24-.75-.36-1.29-.36-1.42,0-2.12.86-2.12,2.59s.71,2.59,2.12,2.59c.55,0,.98-.12,1.29-.36.32-.24.49-.58.53-1.04h1.8c-.04.94-.38,1.67-1.01,2.19-.64.52-1.5.78-2.6.78-1.27,0-2.24-.35-2.91-1.06Z"></path>
    <path class="cls-1" d="m175.41,20.04h-5.96v-8.08h5.88v1.52h-3.98v1.65h3.59v1.41h-3.59v1.97h4.06v1.52Z"></path>
  </g>
</svg>
